# xmcd CD database file
#
# Track frame offsets:
#	150
#	17195
#	39417
#	50507
#	77820
#	94680
#	108372
#	126360
#	141205
#	158667
#	174597
#	191512
#
# Disc length: 2838 seconds
#
# Revision: 5
# Processed by: cddbd v1.5.2PL0 Copyright (c) Steve Scherf et al.
# Submitted via: CDex 1.70beta2
#
DISCID=9a0b140c
DTITLE=Varios Artistas - Un país de música II - Cantautores
DYEAR=2002
DGENRE=Ambient
TTITLE0=Miguel Ríos - Santa Lucía
TTITLE1=Luis Eduardo Aute - Al Alba
TTITLE2=Solera - Linda Prima
TTITLE3=Paco De Lucía - Entre Dos Aguas
TTITLE4=Ana Belén - España, Camisa Blanca De Mi Esperanza
TTITLE5=Pablo Guerrero - A Cántaros
TTITLE6=Hilario Camacho - Tristeza De Amor
TTITLE7=Cecilia - Dama, Dama
TTITLE8=Cánovas, Rodrigo, Adolfo Y Guzmán - Señora Azul
TTITLE9=Patxi Andion - Una, Dos Y Tres
TTITLE10=Marisol - Háblame Del Mar, Marinero
TTITLE11=Víctor Manuel - Solo Pienso En Tí
EXTD=YEAR: 2002
EXTT0=
EXTT1=
EXTT2=
EXTT3=
EXTT4=
EXTT5=
EXTT6=
EXTT7=
EXTT8=
EXTT9=
EXTT10=
EXTT11=
PLAYORDER=
